<svg width="60" height="60" viewBox="0 0 60 60" fill="none" xmlns="http://www.w3.org/2000/svg">
<g filter="url(#filter0_d_8915_6860)">
<rect x="8.5" y="8.5" width="39" height="39" rx="7.5" fill="white" stroke="#E0E0E0"/>
<path fill-rule="evenodd" clip-rule="evenodd" d="M21.1481 24.3669C22.8878 22.8762 25.3056 21.7499 28 21.7499C30.6943 21.7499 33.112 22.8753 34.8519 24.3657C36.5623 25.8309 37.75 27.7703 37.75 29.4999C37.75 31.2295 36.5623 33.169 34.8519 34.6341C33.112 36.1245 30.6943 37.2499 28 37.2499C25.3056 37.2499 22.8878 36.1237 21.1481 34.633C19.4378 33.1676 18.25 31.2282 18.25 29.4999C18.25 27.7717 19.4378 25.8323 21.1481 24.3669ZM22.124 25.5059C20.577 26.8315 19.75 28.3921 19.75 29.4999C19.75 30.6078 20.577 32.1684 22.124 33.494C23.6416 34.7942 25.7239 35.7499 28 35.7499C30.2763 35.7499 32.3586 34.7948 33.876 33.495C35.4229 32.1699 36.25 30.6093 36.25 29.4999C36.25 28.3906 35.4229 26.83 33.876 25.5049C32.3586 24.205 30.2763 23.2499 28 23.2499C25.7239 23.2499 23.6416 24.2057 22.124 25.5059Z" fill="#616161"/>
<path fill-rule="evenodd" clip-rule="evenodd" d="M24.25 29.5C24.25 27.4289 25.9289 25.75 28 25.75C30.0711 25.75 31.75 27.4289 31.75 29.5C31.75 31.571 30.0711 33.25 28 33.25C25.9289 33.25 24.25 31.571 24.25 29.5ZM28 27.25C26.7574 27.25 25.75 28.2573 25.75 29.5C25.75 30.7426 26.7574 31.75 28 31.75C29.2426 31.75 30.25 30.7426 30.25 29.5C30.25 28.2573 29.2426 27.25 28 27.25Z" fill="#616161"/>
<path fill-rule="evenodd" clip-rule="evenodd" d="M22.194 21.0234C22.5307 20.7821 22.9992 20.8594 23.2405 21.1961L24.5378 23.0062C24.7791 23.3429 24.7017 23.8114 24.3651 24.0527C24.0284 24.294 23.5598 24.2167 23.3186 23.88L22.0213 22.0699C21.78 21.7332 21.8573 21.2647 22.194 21.0234Z" fill="#616161"/>
<path fill-rule="evenodd" clip-rule="evenodd" d="M34.2499 21.2455C34.5866 21.4868 34.6639 21.9554 34.4226 22.2921L33.1253 24.1022C32.884 24.4388 32.4155 24.5161 32.0788 24.2749C31.7421 24.0336 31.6648 23.565 31.9061 23.2283L33.2034 21.4182C33.4447 21.0816 33.9132 21.0043 34.2499 21.2455Z" fill="#616161"/>
<path fill-rule="evenodd" clip-rule="evenodd" d="M28.0039 18.7499C28.4181 18.7499 28.7539 19.0857 28.7539 19.4999V22.4999C28.7539 22.9142 28.4181 23.2499 28.0039 23.2499C27.5897 23.2499 27.2539 22.9142 27.2539 22.4999V19.4999C27.2539 19.0857 27.5897 18.7499 28.0039 18.7499Z" fill="#616161"/>
</g>
<defs>
<filter id="filter0_d_8915_6860" x="0" y="0" width="60" height="60" filterUnits="userSpaceOnUse" color-interpolation-filters="sRGB">
<feFlood flood-opacity="0" result="BackgroundImageFix"/>
<feColorMatrix in="SourceAlpha" type="matrix" values="0 0 0 0 0 0 0 0 0 0 0 0 0 0 0 0 0 0 127 0" result="hardAlpha"/>
<feOffset dx="2" dy="2"/>
<feGaussianBlur stdDeviation="5"/>
<feComposite in2="hardAlpha" operator="out"/>
<feColorMatrix type="matrix" values="0 0 0 0 0.733802 0 0 0 0 0.751002 0 0 0 0 0.804167 0 0 0 0.6 0"/>
<feBlend mode="normal" in2="BackgroundImageFix" result="effect1_dropShadow_8915_6860"/>
<feBlend mode="normal" in="SourceGraphic" in2="effect1_dropShadow_8915_6860" result="shape"/>
</filter>
</defs>
</svg>
