<svg width="24" height="24" viewBox="0 0 24 24" fill="none" xmlns="http://www.w3.org/2000/svg">
<path fill-rule="evenodd" clip-rule="evenodd" d="M14.0795 3.99872C14.3724 4.29161 14.3724 4.76649 14.0796 5.05938L5.14982 13.9891C3.74994 15.389 3.76167 17.7225 5.24072 19.2015C6.71981 20.6806 9.05327 20.6923 10.4531 19.2924L19.3828 10.3627C19.6757 10.0698 20.1506 10.0698 20.4435 10.3627C20.7364 10.6556 20.7364 11.1304 20.4435 11.4233L11.5138 20.3531C11.5138 20.3531 11.5138 20.3531 11.5138 20.3531C9.49937 22.3675 6.21573 22.2978 4.18007 20.2622C2.14442 18.2265 2.07473 14.9429 4.08915 12.9285L13.0189 3.99872C13.3118 3.70583 13.7867 3.70583 14.0795 3.99872Z" fill="white"/>
<path fill-rule="evenodd" clip-rule="evenodd" d="M18.1889 13.3481C18.1998 13.7621 17.873 14.1066 17.4589 14.1175L4.38693 14.4616C3.97286 14.4725 3.62835 14.1457 3.61745 13.7316C3.60655 13.3176 3.93339 12.9731 4.34746 12.9622L17.4195 12.6181C17.8335 12.6072 18.178 12.934 18.1889 13.3481Z" fill="white"/>
<path d="M14.6973 10.4535C15.0879 10.0629 15.0879 9.42975 14.6973 9.03925C14.3068 8.6487 13.6737 8.6487 13.2831 9.03925C12.8926 9.42975 12.8926 10.0629 13.2831 10.4535C13.6737 10.844 14.3068 10.844 14.6973 10.4535Z" fill="white"/>
<path d="M11.8673 11.8678C12.2578 11.4773 12.2578 10.8441 11.8673 10.4536C11.4768 10.063 10.8436 10.063 10.4531 10.4536C10.0625 10.8441 10.0625 11.4773 10.4531 11.8678C10.8436 12.2583 11.4768 12.2583 11.8673 11.8678Z" fill="white"/>
<path fill-rule="evenodd" clip-rule="evenodd" d="M11.2529 2.2309C11.5458 1.93801 12.0206 1.93801 12.3135 2.2309L22.213 12.1304C22.5059 12.4233 22.5059 12.8982 22.213 13.1911C21.9201 13.484 21.4452 13.484 21.1523 13.1911L11.2529 3.29156C10.96 2.99866 10.96 2.52379 11.2529 2.2309Z" fill="white"/>
</svg>
