<svg width="182" height="80" viewBox="0 0 182 80" fill="none" xmlns="http://www.w3.org/2000/svg">
<g clip-path="url(#clip0_8301_4925)">
<path d="M86.598 24.4589C84.7092 24.4589 83.2366 23.7382 82.2487 22.3464L82.3295 23.8749C82.3295 23.9573 82.2967 24.0363 82.2385 24.0946C82.1802 24.1528 82.1012 24.1855 82.0188 24.1855H79.2228C79.1404 24.1855 79.0614 24.1528 79.0031 24.0946C78.9448 24.0363 78.9121 23.9573 78.9121 23.8749L79.0239 14.0391L78.9121 5.02978C78.9121 4.94739 78.9448 4.86837 79.0031 4.81011C79.0614 4.75185 79.1404 4.71912 79.2228 4.71912H82.0188C82.1012 4.71912 82.1802 4.75185 82.2385 4.81011C82.2967 4.86837 82.3295 4.94739 82.3295 5.02978L82.2922 11.7682C82.7847 11.0783 83.4385 10.5195 84.1967 10.1404C84.9548 9.76138 85.7941 9.5736 86.6415 9.59349C90.615 9.59349 92.6964 12.8182 92.6964 16.9843C92.6964 21.1503 90.4317 24.4589 86.598 24.4589ZM85.666 22.0419C88.111 22.0979 89.276 20.1779 89.276 17.152C89.276 13.9025 88.083 11.9825 85.7499 12.0105C83.4976 12.0105 82.1928 13.6508 82.1648 16.8755C82.1524 20.181 83.4292 22.0202 85.6816 22.0419H85.666Z" fill="white"/>
<path d="M99.4341 24.5055C96.461 24.5055 94.5722 22.5048 94.5722 18.8918V15.9466L94.4883 10.1682C94.4883 10.0858 94.521 10.0068 94.5793 9.94854C94.6375 9.89027 94.7166 9.85754 94.7989 9.85754H97.5763C97.6587 9.85754 97.7377 9.89027 97.796 9.94854C97.8542 10.0068 97.887 10.0858 97.887 10.1682L97.8031 15.9466V18.811C97.8031 20.8396 98.9153 21.8928 100.444 21.8928C102.112 21.8928 103.696 20.4762 103.973 17.5031V15.9497L103.917 10.1713C103.917 10.0889 103.95 10.0099 104.008 9.95164C104.066 9.89338 104.145 9.86065 104.228 9.86065H107.064C107.146 9.86065 107.226 9.89338 107.284 9.95164C107.342 10.0099 107.375 10.0889 107.375 10.1713L107.235 16.5897L107.319 23.8686C107.319 23.951 107.286 24.0301 107.228 24.0883C107.17 24.1466 107.091 24.1793 107.008 24.1793H104.368C104.285 24.1793 104.206 24.1466 104.148 24.0883C104.09 24.0301 104.057 23.951 104.057 23.8686L104.141 22.0916C103.613 22.8482 102.909 23.4639 102.088 23.8847C101.267 24.3056 100.356 24.5187 99.4341 24.5055Z" fill="white"/>
<path d="M115.968 24.5055C112.078 24.5055 109.381 22.8372 109.217 19.5876C109.217 19.5052 109.25 19.4262 109.308 19.3679C109.366 19.3097 109.445 19.2769 109.527 19.2769H112.168C112.251 19.2769 112.33 19.3097 112.388 19.3679C112.446 19.4262 112.479 19.5052 112.479 19.5876C112.619 21.4516 113.812 22.2842 116.036 22.2842C117.9 22.2842 119.065 21.5324 119.065 20.1996C119.065 17.0308 109.534 19.8393 109.534 13.9459C109.534 11.0567 111.867 9.5282 115.508 9.5282C119.009 9.5282 121.482 10.9759 121.721 13.921C121.728 13.9604 121.725 14.0007 121.714 14.039C121.703 14.0773 121.684 14.1127 121.657 14.1425C121.631 14.1723 121.598 14.1957 121.561 14.2112C121.524 14.2266 121.485 14.2336 121.445 14.2317H118.959C118.87 14.2377 118.783 14.2085 118.715 14.1503C118.648 14.0922 118.606 14.0098 118.599 13.921C118.375 12.5013 117.291 11.6967 115.458 11.6967C113.79 11.6967 112.737 12.318 112.737 13.6974C112.737 16.7823 122.265 13.8651 122.265 19.9107C122.246 22.8465 119.525 24.5055 115.968 24.5055Z" fill="white"/>
<path d="M130.681 24.5055C126.238 24.5055 123.682 21.5884 123.682 17.0495C123.682 12.5107 126.238 9.51892 130.765 9.51892C134.35 9.51892 136.627 11.5476 136.978 14.5766C136.984 14.6161 136.981 14.6565 136.97 14.6948C136.958 14.7331 136.939 14.7684 136.912 14.7981C136.885 14.8278 136.852 14.8512 136.815 14.8666C136.778 14.882 136.739 14.8891 136.699 14.8873H134.213C134.126 14.8881 134.041 14.857 133.975 14.7999C133.908 14.7427 133.865 14.6633 133.853 14.5766C133.493 12.7716 132.3 11.9111 130.796 11.9111C128.311 11.9111 127.158 13.6881 127.158 17.0215C127.158 20.4668 128.323 22.1072 130.768 22.1351C132.52 22.1631 133.797 21.0509 134.021 19.0285C134.031 18.9459 134.07 18.8695 134.13 18.8127C134.191 18.7559 134.27 18.7223 134.353 18.7178H136.91C136.95 18.7159 136.989 18.7229 137.026 18.7383C137.063 18.7538 137.096 18.7772 137.122 18.807C137.149 18.8368 137.168 18.8722 137.179 18.9105C137.191 18.9488 137.193 18.9891 137.186 19.0285C136.807 22.2097 134.362 24.5055 130.681 24.5055Z" fill="white"/>
<path d="M149.148 24.1948C149.065 24.1948 148.986 24.1621 148.928 24.1038C148.87 24.0456 148.837 23.9666 148.837 23.8842L148.893 22.219C148.411 22.9341 147.755 23.5153 146.988 23.9086C146.22 24.302 145.365 24.4945 144.503 24.4682C140.558 24.4682 138.445 21.2466 138.445 17.0774C138.445 12.9083 140.726 9.60278 144.559 9.60278C146.448 9.60278 147.921 10.3546 148.909 11.7153L148.853 10.1868C148.853 10.1044 148.885 10.0254 148.944 9.96716C149.002 9.9089 149.081 9.87617 149.163 9.87617H151.941C152.023 9.87617 152.102 9.9089 152.16 9.96716C152.219 10.0254 152.251 10.1044 152.251 10.1868L152.143 16.9936L152.251 23.8842C152.251 23.9666 152.219 24.0456 152.16 24.1038C152.102 24.1621 152.023 24.1948 151.941 24.1948H149.148ZM145.42 22.1103C147.644 22.1103 148.949 20.442 148.977 17.1396C149.005 13.8372 147.753 11.998 145.476 11.9732C143.031 11.9452 141.863 13.8061 141.863 16.8631C141.866 20.181 143.062 22.0978 145.423 22.0978L145.42 22.1103Z" fill="white"/>
<path d="M154.815 24.1948C154.732 24.1948 154.653 24.1621 154.595 24.1038C154.537 24.0455 154.504 23.9665 154.504 23.8841L154.616 16.9656L154.504 10.1868C154.504 10.1044 154.537 10.0254 154.595 9.96713C154.653 9.90886 154.732 9.87613 154.815 9.87613H157.567C157.649 9.87613 157.728 9.90886 157.787 9.96713C157.845 10.0254 157.878 10.1044 157.878 10.1868L157.794 12.4112C158.85 10.659 160.739 9.77051 162.765 9.77051C162.988 9.7741 163.211 9.79278 163.432 9.82643C163.517 9.84252 163.594 9.88691 163.651 9.95236C163.707 10.0178 163.74 10.1005 163.743 10.1868V12.1875C163.742 12.2267 163.734 12.2653 163.717 12.301C163.701 12.3367 163.678 12.3686 163.649 12.3948C163.619 12.421 163.585 12.441 163.548 12.4534C163.511 12.4659 163.472 12.4705 163.432 12.4671C163.226 12.442 163.019 12.4327 162.811 12.4391C160.146 12.4391 158.033 13.9645 157.865 17.1892L157.893 23.8841C157.893 23.9665 157.861 24.0455 157.802 24.1038C157.744 24.1621 157.665 24.1948 157.583 24.1948H154.815Z" fill="white"/>
<path d="M82.3167 42.4869L82.4285 47.5166C82.4285 47.599 82.3958 47.678 82.3375 47.7363C82.2792 47.7946 82.2002 47.8273 82.1178 47.8273H79.2286C79.1462 47.8273 79.0672 47.7946 79.009 47.7363C78.9507 47.678 78.918 47.599 78.918 47.5166L79.0298 42.4869L78.9739 33.8193C78.9739 33.7369 79.0066 33.6579 79.0649 33.5996C79.1231 33.5414 79.2022 33.5086 79.2846 33.5086H81.9501C82.0325 33.5086 82.1115 33.5414 82.1698 33.5996C82.228 33.6579 82.2608 33.7369 82.2608 33.8193L82.1769 35.5963C83.1089 34.1517 84.4541 33.1793 86.4548 33.1793C88.4555 33.1793 89.9001 34.0678 90.54 36.0157C91.6802 33.9591 93.1248 33.1793 94.9857 33.1793C97.819 33.1793 99.4873 34.9315 99.4873 38.7931V42.4869L99.568 47.5166C99.568 47.599 99.5353 47.678 99.4771 47.7363C99.4188 47.7946 99.3398 47.8273 99.2574 47.8273H96.4241C96.3417 47.8273 96.2627 47.7946 96.2044 47.7363C96.1461 47.678 96.1134 47.599 96.1134 47.5166L96.2253 42.4869V38.877C96.2253 36.7023 95.2933 35.792 93.8921 35.792C92.6153 35.792 91.3354 37.1248 90.9191 39.5418V42.4869L91.0309 47.5166C91.0309 47.599 90.9982 47.678 90.9399 47.7363C90.8816 47.7946 90.8026 47.8273 90.7202 47.8273H87.859C87.7766 47.8273 87.6976 47.7946 87.6393 47.7363C87.581 47.678 87.5483 47.599 87.5483 47.5166L87.6602 42.4869V38.877C87.6602 36.7023 86.7685 35.792 85.3519 35.792C83.9353 35.792 82.5745 37.3454 82.2949 40.1818L82.3167 42.4869Z" fill="white"/>
<path d="M114.717 42.9312C114.756 42.9324 114.795 42.9414 114.83 42.9579C114.865 42.9743 114.897 42.9977 114.923 43.0268C114.949 43.0558 114.969 43.0898 114.982 43.1268C114.995 43.1638 115 43.2029 114.997 43.2419C114.58 45.9633 112.247 48.1598 108.439 48.1598C103.797 48.1598 101.324 45.0748 101.324 40.7038C101.324 36.1742 103.965 33.1732 108.327 33.1732C112.747 33.1732 115.22 36.1183 115.329 40.9802C115.329 41.0626 115.296 41.1417 115.238 41.1999C115.18 41.2582 115.101 41.2909 115.018 41.2909H104.689C104.825 44.3479 106.077 45.7925 108.466 45.7925C110.219 45.7925 111.356 44.9568 111.747 43.2357C111.758 43.1484 111.801 43.0682 111.867 43.0108C111.934 42.9534 112.02 42.9228 112.107 42.925L114.717 42.9312ZM108.314 35.5156C106.314 35.5156 105.149 36.7365 104.785 39.0417H111.732C111.607 37.1808 110.523 35.5156 108.314 35.5156ZM106.009 32.0703C105.928 32.0913 105.842 32.0832 105.766 32.0475C105.69 32.0118 105.628 31.9506 105.593 31.8746L105.149 30.7624C105.127 30.6845 105.132 30.6018 105.161 30.5268C105.191 30.4517 105.244 30.3883 105.313 30.3461L111.527 27.5687C111.558 27.5502 111.594 27.5391 111.631 27.5361C111.668 27.5331 111.705 27.5383 111.739 27.5514C111.774 27.5645 111.805 27.5851 111.83 27.6118C111.856 27.6384 111.875 27.6704 111.887 27.7054L112.583 29.762C112.598 29.8393 112.584 29.9194 112.542 29.9863C112.501 30.0532 112.435 30.1019 112.359 30.1224L106.009 32.0703Z" fill="white"/>
<path d="M127.417 47.8241C127.335 47.8241 127.256 47.7914 127.197 47.7332C127.139 47.6749 127.106 47.5959 127.106 47.5135L127.162 45.8763C126.676 46.5863 126.02 47.1632 125.254 47.5545C124.488 47.9458 123.636 48.1389 122.776 48.1162C118.83 48.1162 116.721 44.8945 116.721 40.7254C116.721 36.5562 118.998 33.2507 122.832 33.2507C124.696 33.2507 126.165 33.9746 127.14 35.3074L127.085 28.6932C127.085 28.6108 127.117 28.5318 127.176 28.4736C127.234 28.4153 127.313 28.3826 127.395 28.3826H130.191C130.274 28.3826 130.353 28.4153 130.411 28.4736C130.469 28.5318 130.502 28.6108 130.502 28.6932L130.39 37.6405L130.502 47.5321C130.502 47.6145 130.469 47.6935 130.411 47.7518C130.353 47.8101 130.274 47.8428 130.191 47.8428L127.417 47.8241ZM123.689 45.7675C125.913 45.7675 127.218 44.0992 127.246 40.7968C127.274 37.4944 126.025 35.5994 123.745 35.5714C121.3 35.5186 120.135 37.4354 120.135 40.5172C120.138 43.8227 121.331 45.7675 123.692 45.7675H123.689Z" fill="white"/>
<path d="M133.223 47.8242C133.14 47.8242 133.061 47.7914 133.003 47.7332C132.945 47.6749 132.912 47.5959 132.912 47.5135L133.024 40.567L132.918 33.8255C132.918 33.7431 132.951 33.6641 133.009 33.6058C133.068 33.5475 133.147 33.5148 133.229 33.5148H136.065C136.148 33.5148 136.227 33.5475 136.285 33.6058C136.343 33.6641 136.376 33.7431 136.376 33.8255L136.264 40.5763L136.376 47.5228C136.376 47.6052 136.343 47.6842 136.285 47.7425C136.227 47.8007 136.148 47.8335 136.065 47.8335L133.223 47.8242ZM133.251 31.9801C133.168 31.9801 133.089 31.9474 133.031 31.8891C132.973 31.8309 132.94 31.7518 132.94 31.6694V28.976C132.94 28.8936 132.973 28.8145 133.031 28.7563C133.089 28.698 133.168 28.6653 133.251 28.6653H136.047C136.129 28.6653 136.208 28.698 136.266 28.7563C136.325 28.8145 136.357 28.8936 136.357 28.976V31.6694C136.357 31.7518 136.325 31.8309 136.266 31.8891C136.208 31.9474 136.129 31.9801 136.047 31.9801H133.251Z" fill="white"/>
<path d="M145.368 48.1566C140.922 48.1566 138.365 45.2395 138.365 40.7006C138.365 36.1618 140.922 33.17 145.452 33.17C149.037 33.17 151.314 35.1987 151.646 38.2277C151.653 38.2671 151.65 38.3074 151.639 38.3457C151.628 38.384 151.609 38.4194 151.582 38.4491C151.556 38.4789 151.523 38.5024 151.486 38.5179C151.449 38.5333 151.41 38.5403 151.37 38.5384H148.884C148.797 38.5406 148.711 38.51 148.644 38.4526C148.578 38.3951 148.535 38.315 148.524 38.2277C148.161 36.4227 146.971 35.5591 145.467 35.5591C142.982 35.5591 141.826 37.3392 141.826 40.6727C141.826 44.118 142.994 45.7583 145.439 45.7863C147.188 45.8142 148.468 44.702 148.689 42.6796C148.699 42.5965 148.738 42.5197 148.8 42.4628C148.861 42.406 148.941 42.3727 149.024 42.3689H151.578C151.618 42.3671 151.658 42.3741 151.695 42.3896C151.731 42.405 151.764 42.4284 151.791 42.4581C151.818 42.4878 151.838 42.5231 151.849 42.5614C151.861 42.5997 151.864 42.6401 151.858 42.6796C151.497 45.8515 149.065 48.1566 145.368 48.1566Z" fill="white"/>
<path d="M160.233 48.1566C155.731 48.1566 153.146 45.2395 153.146 40.7006C153.146 36.1618 155.731 33.17 160.233 33.17C164.734 33.17 167.263 36.0872 167.263 40.6261C167.263 45.1649 164.734 48.1566 160.233 48.1566ZM160.233 45.7956C162.65 45.7956 163.818 44.1273 163.818 40.7099C163.818 37.2926 162.622 35.5435 160.205 35.5435C157.788 35.5435 156.567 37.3485 156.567 40.7379C156.567 44.1273 157.788 45.7956 160.233 45.7956Z" fill="white"/>
<path d="M175.21 48.1566C171.32 48.1566 168.627 46.4883 168.459 43.2387C168.459 43.1563 168.492 43.0773 168.55 43.0191C168.608 42.9608 168.687 42.9281 168.77 42.9281H171.41C171.493 42.9281 171.572 42.9608 171.63 43.0191C171.688 43.0773 171.721 43.1563 171.721 43.2387C171.861 45.1027 173.057 45.9322 175.278 45.9322C177.142 45.9322 178.307 45.1835 178.307 43.8507C178.307 40.6819 168.776 43.4873 168.776 37.597C168.776 34.7078 171.112 33.1793 174.75 33.1793C178.251 33.1793 180.724 34.6239 180.963 37.5691C180.969 37.6086 180.967 37.6489 180.955 37.6872C180.944 37.7255 180.924 37.7608 180.897 37.7905C180.87 37.8202 180.837 37.8437 180.8 37.8591C180.764 37.8745 180.724 37.8816 180.684 37.8797H178.198C178.11 37.8849 178.023 37.8554 177.955 37.7974C177.888 37.7394 177.846 37.6575 177.838 37.5691C177.614 36.1524 176.533 35.3478 174.697 35.3478C173.032 35.3478 171.976 35.9691 171.976 37.3485C171.976 40.4334 181.507 37.5131 181.507 43.5618C181.491 46.4883 178.767 48.1566 175.21 48.1566Z" fill="white"/>
<path d="M88.8567 66.8805C90.0994 66.2592 90.7207 65.1967 90.7207 63.6869C90.7207 61.2575 88.7045 59.8066 85.3306 59.8066H79.4994C79.4239 59.807 79.3492 59.8223 79.2797 59.8516C79.2101 59.8808 79.147 59.9235 79.0939 59.9772C79.0408 60.0308 78.9988 60.0944 78.9703 60.1643C78.9418 60.2342 78.9273 60.309 78.9277 60.3845L79.052 67.2813L78.9277 74.4049C78.9286 74.556 78.9892 74.7006 79.0963 74.8071C79.2034 74.9136 79.3483 74.9734 79.4994 74.9734H85.4021C88.9437 74.9734 91.1432 73.1778 91.1432 70.2886C91.1716 69.5517 90.9655 68.8248 90.5547 68.2124C90.1438 67.6 89.5493 67.1337 88.8567 66.8805ZM85.3555 65.7652H82.1463L82.2332 62.3759H85.3555C86.1601 62.3759 87.5146 62.5964 87.5146 64.0814C87.5146 65.2029 86.7876 65.7652 85.3555 65.7652ZM87.8874 70.2886C87.8874 71.7332 87.0828 72.4073 85.3555 72.4073H82.2332L82.1463 68.3096H85.3555C86.2999 68.3096 87.8874 68.5706 87.8874 70.2886Z" fill="white"/>
<path d="M107.595 68.9744C109.637 68.2785 110.755 66.7314 110.755 64.5785C110.755 61.4998 108.67 59.8066 104.886 59.8066H99.4466C99.3712 59.807 99.2965 59.8223 99.2269 59.8516C99.1574 59.8808 99.0942 59.9235 99.0412 59.9772C98.9881 60.0308 98.9461 60.0944 98.9176 60.1643C98.8891 60.2342 98.8746 60.309 98.875 60.3845L98.9806 67.303L98.875 74.4049C98.8758 74.556 98.9364 74.7006 99.0435 74.8071C99.1507 74.9136 99.2956 74.9734 99.4466 74.9734H101.621C101.697 74.9734 101.771 74.9585 101.841 74.9296C101.91 74.9007 101.974 74.8583 102.027 74.8049C102.08 74.7515 102.122 74.6881 102.15 74.6184C102.179 74.5487 102.193 74.474 102.193 74.3987L102.1 69.369H104.194L105.865 71.9165L107.456 74.6193C107.463 74.6339 107.473 74.6475 107.484 74.6597C107.557 74.7549 107.651 74.8323 107.759 74.8861C107.866 74.9399 107.985 74.9687 108.105 74.9703H110.59C110.678 74.9719 110.764 74.9488 110.84 74.9038C110.915 74.8588 110.976 74.7936 111.016 74.7156C111.052 74.6431 111.069 74.5619 111.063 74.4809C111.057 74.3999 111.029 74.3221 110.982 74.2558L107.595 68.9744ZM107.595 64.6251C107.595 66.3586 106.229 66.7221 105.082 66.7221H102.1L102.171 62.4442H105.064C106.76 62.438 107.608 63.1712 107.608 64.6189L107.595 64.6251Z" fill="white"/>
<path d="M127.432 60.2509C127.385 60.1234 127.3 60.013 127.19 59.9339C127.079 59.8547 126.947 59.8104 126.811 59.8066H123.847C123.712 59.8091 123.58 59.8522 123.469 59.9303C123.359 60.0084 123.274 60.1179 123.226 60.2447L118.286 74.2962C118.256 74.3703 118.244 74.4507 118.253 74.5303C118.261 74.61 118.288 74.6864 118.333 74.7529C118.379 74.8212 118.441 74.8771 118.513 74.9156C118.586 74.9541 118.667 74.974 118.749 74.9734H120.88C121.017 74.9736 121.151 74.9308 121.262 74.8511C121.374 74.7715 121.458 74.6589 121.502 74.5292L122.645 71.0031H127.858L129.035 74.523C129.081 74.6512 129.165 74.7622 129.276 74.8407C129.388 74.9191 129.521 74.9612 129.657 74.961H131.831C131.914 74.9627 131.995 74.9441 132.068 74.9066C132.141 74.8692 132.204 74.8143 132.251 74.7466C132.294 74.6814 132.321 74.6068 132.33 74.529C132.339 74.4512 132.329 74.3724 132.301 74.2993L127.432 60.2509ZM123.537 68.2071L125.208 63.0283L126.942 68.2226L123.537 68.2071Z" fill="white"/>
<path d="M146.454 65.7155C144.279 65.321 142.98 65.0041 142.98 63.9167C142.98 62.5218 144.403 62.2298 145.596 62.2298C147.46 62.2298 148.46 62.9071 148.61 64.2616C148.634 64.4012 148.706 64.5282 148.813 64.6214C148.92 64.7146 149.055 64.7686 149.197 64.7742H151.409C151.483 64.7742 151.556 64.7594 151.624 64.7306C151.692 64.7018 151.753 64.6596 151.804 64.6066C151.856 64.5535 151.896 64.4907 151.922 64.4218C151.949 64.3529 151.961 64.2794 151.959 64.2057C151.96 64.1902 151.96 64.1746 151.959 64.1591C151.561 61.1239 149.393 59.5177 145.683 59.5177C142.051 59.5177 139.78 61.2978 139.78 64.1622C139.78 67.5795 142.955 68.2009 145.506 68.6669C147.749 69.0894 149.11 69.4342 149.11 70.6582C149.11 71.1336 149.11 72.5719 146.165 72.5719C143.99 72.5719 143.036 71.7953 142.819 69.8785C142.794 69.7388 142.722 69.6119 142.616 69.5186C142.509 69.4254 142.373 69.3715 142.232 69.3659H140.057C139.981 69.3663 139.906 69.3817 139.836 69.4114C139.766 69.4411 139.703 69.4844 139.65 69.5388C139.597 69.5931 139.556 69.6575 139.528 69.7281C139.5 69.7987 139.487 69.8741 139.488 69.9499C139.634 73.3269 142.042 75.2654 146.099 75.2654C149.992 75.2654 152.313 73.4014 152.313 70.2948C152.331 66.7904 149.073 66.1939 146.454 65.7155Z" fill="white"/>
<path d="M163.071 59.8066H160.921C160.846 59.807 160.771 59.8223 160.702 59.8516C160.632 59.8808 160.569 59.9235 160.516 59.9772C160.463 60.0308 160.421 60.0944 160.392 60.1643C160.364 60.2342 160.349 60.309 160.35 60.3845L160.474 67.3217L160.35 74.4049C160.35 74.556 160.411 74.7006 160.518 74.8071C160.625 74.9136 160.77 74.9734 160.921 74.9734H163.071C163.146 74.9734 163.221 74.9585 163.291 74.9296C163.36 74.9007 163.423 74.8583 163.476 74.8049C163.529 74.7515 163.572 74.6881 163.6 74.6184C163.629 74.5487 163.643 74.474 163.643 74.3987L163.518 67.3341L163.643 60.3783C163.643 60.2267 163.582 60.0813 163.475 59.9741C163.368 59.8669 163.223 59.8066 163.071 59.8066Z" fill="white"/>
<path d="M180.714 72.3017H174.97L174.871 67.1073L174.976 60.3783C174.975 60.2269 174.915 60.082 174.808 59.975C174.701 59.8679 174.556 59.8075 174.405 59.8066H172.23C172.154 59.807 172.08 59.8223 172.01 59.8516C171.941 59.8808 171.877 59.9235 171.824 59.9772C171.771 60.0308 171.729 60.0944 171.701 60.1643C171.672 60.2342 171.658 60.309 171.658 60.3845L171.782 67.2409L171.658 74.4049C171.659 74.556 171.72 74.7006 171.827 74.8071C171.934 74.9136 172.079 74.9734 172.23 74.9734H180.711C180.862 74.9734 181.007 74.9136 181.114 74.8071C181.221 74.7006 181.282 74.556 181.283 74.4049V72.8733C181.282 72.7225 181.222 72.578 181.115 72.4711C181.009 72.3642 180.865 72.3033 180.714 72.3017Z" fill="white"/>
<path d="M181.283 52.1487H78.9277V55.5722H181.283V52.1487Z" fill="url(#paint0_linear_8301_4925)"/>
<path d="M57.4543 9.85752C54.339 6.68709 50.6266 4.1651 46.5314 2.43715C42.4362 0.709193 38.0392 -0.190504 33.5944 -0.210003C29.1496 -0.229502 24.745 0.631581 20.6348 2.32354C16.5245 4.01549 12.7902 6.50482 9.64718 9.64779C6.5042 12.7908 4.01488 16.5252 2.32293 20.6354C0.63097 24.7456 -0.230113 29.1502 -0.210614 33.5951C-0.191114 38.0399 0.708592 42.4368 2.43655 46.532C4.1645 50.6272 6.68648 54.3396 9.85692 57.4549L31.5104 79.1115C32.0784 79.6788 32.8482 79.9974 33.6509 79.9974C34.4536 79.9974 35.2235 79.6788 35.7914 79.1115L57.4512 57.4549C60.5773 54.3301 63.0571 50.6201 64.7492 46.5368C66.4412 42.4535 67.3122 38.0769 67.3125 33.6569C67.3128 29.2368 66.4423 24.8601 64.7508 20.7765C63.0593 16.693 60.5799 12.9827 57.4543 9.85752ZM33.6572 10.2148C38.322 10.2148 42.8821 11.5981 46.7608 14.1897C50.6394 16.7814 53.6625 20.465 55.4477 24.7747C57.2328 29.0845 57.6999 33.8268 56.7898 38.4021C55.8798 42.9773 53.6334 47.1799 50.3349 50.4784C47.0363 53.7769 42.8337 56.0233 38.2585 56.9334C33.6833 57.8434 28.941 57.3763 24.6312 55.5912C20.3215 53.806 16.6379 50.783 14.0462 46.9043C11.4546 43.0256 10.0713 38.4655 10.0713 33.8007C10.0713 30.7033 10.6813 27.6363 11.8666 24.7747C13.0519 21.9132 14.7893 19.3131 16.9794 17.1229C21.4026 12.6997 27.4018 10.2148 33.6572 10.2148Z" fill="url(#paint1_linear_8301_4925)"/>
<g style="mix-blend-mode:multiply" opacity="0.5">
<path d="M41.0178 7.85372C38.7168 8.86553 36.2307 9.38801 33.7171 9.38801C31.2035 9.38801 28.7173 8.86553 26.4164 7.85372C6.96549 -0.239172 -1.02488 25.8258 3.11632 41.5145C5.8564 51.9095 11.3366 58.0949 20.5945 64.1529C26.1865 67.8094 31.5641 70.4377 33.7202 70.6334C35.8762 70.4377 41.2601 67.8094 46.8459 64.1529C56.1038 58.0949 61.584 51.9095 64.324 41.5145C68.459 25.8258 60.4718 -0.239172 41.0178 7.85372ZM33.658 57.3803C28.9932 57.3803 24.4331 55.997 20.5544 53.4054C16.6757 50.8138 13.6527 47.1301 11.8675 42.8204C10.0824 38.5106 9.61528 33.7683 10.5254 29.1931C11.4354 24.6179 13.6818 20.4153 16.9803 17.1167C20.2789 13.8182 24.4814 11.5718 29.0567 10.6618C33.6319 9.75171 38.3742 10.2188 42.684 12.0039C46.9937 13.7891 50.6773 16.8122 53.269 20.6908C55.8606 24.5695 57.2439 29.1296 57.2439 33.7945C57.2439 36.8918 56.6339 39.9588 55.4486 42.8204C54.2633 45.682 52.5259 48.282 50.3358 50.4722C48.1456 52.6623 45.5455 54.3997 42.684 55.585C39.8224 56.7703 36.7554 57.3803 33.658 57.3803Z" fill="url(#paint2_linear_8301_4925)"/>
</g>
<path d="M34.1378 44.5498C32.9592 46.525 32.1743 48.7099 31.8264 50.9837C29.3007 50.7134 27.1043 49.7814 26.7066 47.47C26.396 45.606 26.135 43.5836 25.961 41.4866C23.864 41.3126 21.8447 41.0672 19.9807 40.741C17.1163 40.2439 16.377 37.013 16.377 33.7944C16.377 30.5759 17.1163 27.345 19.9807 26.8448C21.1612 26.6429 22.4039 26.472 23.7087 26.3291C23.3053 30.0796 24.0983 33.8617 25.9743 37.1343C27.8503 40.4069 30.7131 43.0025 34.1533 44.5498H34.1378Z" fill="url(#paint3_linear_8301_4925)"/>
<path d="M47.1117 35.9816C44.4427 36.3391 41.8891 37.2955 39.6419 38.7793C37.3948 40.263 35.5122 42.2357 34.1351 44.5498C30.6948 43.0025 27.832 40.4069 25.9561 37.1343C24.0801 33.8617 23.2871 30.0797 23.6904 26.3291C24.4298 26.2421 25.191 26.1676 25.9583 26.1054C26.0608 24.8969 26.1851 23.7102 26.3342 22.5638C27.4611 22.3533 28.6052 22.2493 29.7516 22.2532C33.7675 22.2556 37.6654 23.6119 40.8154 26.1029C43.9655 28.594 46.1837 32.0743 47.1117 35.9816Z" fill="url(#paint4_linear_8301_4925)"/>
<path d="M50.9364 33.7944C50.941 34.4892 50.8995 35.1835 50.8122 35.8728C50.3741 35.8386 49.9299 35.8231 49.4825 35.8231C48.6908 35.824 47.9 35.8769 47.1152 35.9815C46.1884 32.0699 43.9687 28.5856 40.8153 26.0924C37.662 23.5993 33.7595 22.2432 29.7396 22.2438C28.5933 22.24 27.4491 22.344 26.3223 22.5545C26.4341 21.7157 26.5553 20.8955 26.692 20.1126C27.189 17.2483 30.42 16.5027 33.6416 16.5027C36.8632 16.5027 40.0879 17.2483 40.585 20.1126C40.9112 21.9766 41.1566 23.9929 41.3306 26.0961C43.4276 26.2701 45.4532 26.5155 47.3172 26.8355C50.1877 27.345 50.9364 30.5821 50.9364 33.7944Z" fill="url(#paint5_linear_8301_4925)"/>
<g style="mix-blend-mode:multiply" opacity="0.5">
<path d="M50.9364 33.7944C50.941 34.4892 50.8995 35.1835 50.8122 35.8728C50.3741 35.8386 49.9299 35.8231 49.4825 35.8231C48.6908 35.824 47.9 35.8769 47.1152 35.9815C46.1884 32.0699 43.9687 28.5856 40.8153 26.0924C37.662 23.5993 33.7595 22.2432 29.7396 22.2438C28.5933 22.24 27.4491 22.344 26.3223 22.5545C26.4341 21.7157 26.5553 20.8955 26.692 20.1126C27.189 17.2483 30.42 16.5027 33.6416 16.5027C36.8632 16.5027 40.0879 17.2483 40.585 20.1126C40.9112 21.9766 41.1566 23.9929 41.3306 26.0961C43.4276 26.2701 45.4532 26.5155 47.3172 26.8355C50.1877 27.345 50.9364 30.5821 50.9364 33.7944Z" fill="url(#paint6_linear_8301_4925)"/>
</g>
<path d="M50.8114 35.8728C50.5193 38.1997 49.6371 40.1942 47.5835 40.6882C47.5835 40.4925 47.5835 40.2905 47.5835 40.0979C47.587 38.7121 47.4285 37.3306 47.1113 35.9816C47.8961 35.8769 48.6869 35.824 49.4786 35.8231C49.9291 35.8231 50.3733 35.8387 50.8114 35.8728Z" fill="url(#paint7_linear_8301_4925)"/>
<path d="M47.593 40.0979C47.593 40.2905 47.593 40.4925 47.593 40.6882L47.3413 40.741C45.4773 41.0672 43.4518 41.3126 41.3548 41.4866C41.2243 43.0772 41.0441 44.6274 40.8328 46.0969C38.526 46.0147 36.2569 45.4873 34.1504 44.5436C35.5266 42.2326 37.4071 40.2623 39.6513 38.7797C41.8956 37.2971 44.4458 36.3406 47.1114 35.9816C47.4317 37.3302 47.5934 38.7117 47.593 40.0979Z" fill="url(#paint8_linear_8301_4925)"/>
<path d="M40.822 46.0969C40.7536 46.5629 40.679 47.0289 40.6014 47.4701C40.1043 50.3282 36.8734 51.0738 33.658 51.0738C33.0469 51.0752 32.4361 51.0451 31.8281 50.9837C32.176 48.71 32.9609 46.5251 34.1395 44.5498C36.2464 45.4914 38.5156 46.0167 40.822 46.0969Z" fill="url(#paint9_linear_8301_4925)"/>
<g style="mix-blend-mode:multiply" opacity="0.5">
<path d="M50.8133 35.8728C50.5213 38.1997 49.639 40.1942 47.5855 40.6882C47.5855 40.4925 47.5855 40.2905 47.5855 40.0979C47.5889 38.7121 47.4305 37.3306 47.1133 35.9816C47.8981 35.8769 48.6889 35.824 49.4806 35.8231C49.931 35.8231 50.3753 35.8387 50.8133 35.8728Z" fill="url(#paint10_linear_8301_4925)"/>
<path d="M47.5949 40.0979C47.5949 40.2905 47.5949 40.4925 47.5949 40.6882L47.3433 40.741C45.4793 41.0672 43.4537 41.3126 41.3567 41.4866C41.2262 43.0772 41.046 44.6274 40.8348 46.0969C38.528 46.0147 36.2589 45.4873 34.1523 44.5436C35.5286 42.2326 37.409 40.2623 39.6533 38.7797C41.8976 37.2971 44.4477 36.3406 47.1134 35.9816C47.4337 37.3302 47.5953 38.7117 47.5949 40.0979Z" fill="url(#paint11_linear_8301_4925)"/>
<path d="M40.822 46.0969C40.7536 46.5629 40.679 47.0289 40.6014 47.4701C40.1043 50.3282 36.8734 51.0738 33.658 51.0738C33.0469 51.0752 32.4361 51.0451 31.8281 50.9837C32.176 48.71 32.9609 46.5251 34.1395 44.5498C36.2464 45.4914 38.5156 46.0167 40.822 46.0969Z" fill="url(#paint12_linear_8301_4925)"/>
</g>
<path d="M42.4517 32.9402C42.4519 31.9079 42.118 30.9032 41.4999 30.0764C40.8819 29.2496 40.0128 28.6451 39.0227 28.3531C38.0325 28.0612 36.9745 28.0976 36.0067 28.4568C35.0389 28.816 34.2134 29.4788 33.6536 30.3461C33.0937 29.4788 32.2682 28.816 31.3004 28.4568C30.3327 28.0976 29.2746 28.0612 28.2845 28.3531C27.2943 28.6451 26.4253 29.2496 25.8072 30.0764C25.1891 30.9032 24.8552 31.9079 24.8555 32.9402C24.8555 33.0116 24.8555 33.0831 24.8555 33.1514C24.8555 33.2229 24.8555 33.2943 24.871 33.3658C24.871 33.5118 24.9052 33.6578 24.93 33.8007C24.9283 33.811 24.9283 33.8215 24.93 33.8318C24.93 33.8939 24.9549 33.956 24.9704 34.0182C24.9704 34.0524 24.986 34.0896 24.9984 34.1269C25.3134 35.242 25.8561 36.2797 26.5921 37.1746C28.5276 39.6599 31.5628 41.6357 32.9825 42.1452H33.0198L33.6412 42.2478H33.6691L34.2687 42.1484L34.3122 42.1328C35.7319 41.6357 38.7641 39.6475 40.6995 37.1621C41.3833 36.3251 41.9038 35.3672 42.2342 34.3382C42.256 34.2667 42.2746 34.1953 42.2932 34.1238C42.3119 34.0524 42.315 34.043 42.3243 34.0026C42.3336 33.9623 42.3554 33.8597 42.3678 33.7883C42.3927 33.6423 42.4144 33.4963 42.4299 33.3502C42.4299 33.2788 42.4299 33.2073 42.4299 33.1359C42.4517 33.08 42.4517 33.0085 42.4517 32.9402Z" fill="url(#paint13_linear_8301_4925)"/>
<g style="mix-blend-mode:multiply" opacity="0.5">
<path d="M42.4517 32.9402C42.4519 31.9079 42.118 30.9032 41.4999 30.0764C40.8819 29.2496 40.0128 28.6451 39.0227 28.3531C38.0325 28.0612 36.9745 28.0976 36.0067 28.4568C35.0389 28.816 34.2134 29.4788 33.6536 30.3461C33.0937 29.4788 32.2682 28.816 31.3004 28.4568C30.3327 28.0976 29.2746 28.0612 28.2845 28.3531C27.2943 28.6451 26.4253 29.2496 25.8072 30.0764C25.1891 30.9032 24.8552 31.9079 24.8555 32.9402C24.8555 33.0116 24.8555 33.0831 24.8555 33.1514C24.8555 33.2229 24.8555 33.2943 24.871 33.3658C24.871 33.5118 24.9052 33.6578 24.93 33.8007C24.9283 33.811 24.9283 33.8215 24.93 33.8318C24.93 33.8939 24.9549 33.956 24.9704 34.0182C24.9704 34.0524 24.986 34.0896 24.9984 34.1269C25.3134 35.242 25.8561 36.2797 26.5921 37.1746C28.5276 39.6599 31.5628 41.6357 32.9825 42.1452H33.0198L33.6412 42.2478H33.6691L34.2687 42.1484L34.3122 42.1328C35.7319 41.6357 38.7641 39.6475 40.6995 37.1621C41.3833 36.3251 41.9038 35.3672 42.2342 34.3382C42.256 34.2667 42.2746 34.1953 42.2932 34.1238C42.3119 34.0524 42.315 34.043 42.3243 34.0026C42.3336 33.9623 42.3554 33.8597 42.3678 33.7883C42.3927 33.6423 42.4144 33.4963 42.4299 33.3502C42.4299 33.2788 42.4299 33.2073 42.4299 33.1359C42.4517 33.08 42.4517 33.0085 42.4517 32.9402Z" fill="url(#paint14_linear_8301_4925)"/>
</g>
</g>
<defs>
<linearGradient id="paint0_linear_8301_4925" x1="78.9277" y1="53.8605" x2="181.286" y2="53.8605" gradientUnits="userSpaceOnUse">
<stop stop-color="#99C237"/>
<stop offset="0.03" stop-color="#91C037"/>
<stop offset="0.18" stop-color="#73B736"/>
<stop offset="0.3" stop-color="#61B236"/>
<stop offset="0.39" stop-color="#5AB036"/>
<stop offset="0.47" stop-color="#58AF3E"/>
<stop offset="0.58" stop-color="#52AC52"/>
<stop offset="0.71" stop-color="#48A774"/>
<stop offset="0.86" stop-color="#3AA1A3"/>
<stop offset="1" stop-color="#2B9AD6"/>
</linearGradient>
<linearGradient id="paint1_linear_8301_4925" x1="-0.000571405" y1="39.9985" x2="67.3118" y2="39.9985" gradientUnits="userSpaceOnUse">
<stop stop-color="#99C237"/>
<stop offset="0.03" stop-color="#91C037"/>
<stop offset="0.18" stop-color="#73B736"/>
<stop offset="0.3" stop-color="#61B236"/>
<stop offset="0.39" stop-color="#5AB036"/>
<stop offset="0.47" stop-color="#58AF3E"/>
<stop offset="0.58" stop-color="#52AC52"/>
<stop offset="0.71" stop-color="#48A774"/>
<stop offset="0.86" stop-color="#3AA1A3"/>
<stop offset="1" stop-color="#2B9AD6"/>
</linearGradient>
<linearGradient id="paint2_linear_8301_4925" x1="2.06005" y1="38.4824" x2="65.3865" y2="38.4824" gradientUnits="userSpaceOnUse">
<stop stop-color="#99C237"/>
<stop offset="0.03" stop-color="#91C037"/>
<stop offset="0.18" stop-color="#73B736"/>
<stop offset="0.3" stop-color="#61B236"/>
<stop offset="0.39" stop-color="#5AB036"/>
<stop offset="0.47" stop-color="#58AF3E"/>
<stop offset="0.58" stop-color="#52AC52"/>
<stop offset="0.71" stop-color="#48A774"/>
<stop offset="0.86" stop-color="#3AA1A3"/>
<stop offset="1" stop-color="#2B9AD6"/>
</linearGradient>
<linearGradient id="paint3_linear_8301_4925" x1="16.377" y1="38.6564" x2="34.1378" y2="38.6564" gradientUnits="userSpaceOnUse">
<stop stop-color="#99C237"/>
<stop offset="0.03" stop-color="#91C037"/>
<stop offset="0.18" stop-color="#73B736"/>
<stop offset="0.3" stop-color="#61B236"/>
<stop offset="0.39" stop-color="#5AB036"/>
<stop offset="0.47" stop-color="#58AF3E"/>
<stop offset="0.58" stop-color="#52AC52"/>
<stop offset="0.71" stop-color="#48A774"/>
<stop offset="0.86" stop-color="#3AA1A3"/>
<stop offset="1" stop-color="#2B9AD6"/>
</linearGradient>
<linearGradient id="paint4_linear_8301_4925" x1="23.591" y1="33.3968" x2="47.1148" y2="33.3968" gradientUnits="userSpaceOnUse">
<stop stop-color="#99C237"/>
<stop offset="0.03" stop-color="#91C037"/>
<stop offset="0.18" stop-color="#73B736"/>
<stop offset="0.3" stop-color="#61B236"/>
<stop offset="0.39" stop-color="#5AB036"/>
<stop offset="0.47" stop-color="#58AF3E"/>
<stop offset="0.58" stop-color="#52AC52"/>
<stop offset="0.71" stop-color="#48A774"/>
<stop offset="0.86" stop-color="#3AA1A3"/>
<stop offset="1" stop-color="#2B9AD6"/>
</linearGradient>
<linearGradient id="paint5_linear_8301_4925" x1="26.3378" y1="26.2452" x2="50.9364" y2="26.2452" gradientUnits="userSpaceOnUse">
<stop stop-color="#99C237"/>
<stop offset="0.03" stop-color="#91C037"/>
<stop offset="0.18" stop-color="#73B736"/>
<stop offset="0.3" stop-color="#61B236"/>
<stop offset="0.39" stop-color="#5AB036"/>
<stop offset="0.47" stop-color="#58AF3E"/>
<stop offset="0.58" stop-color="#52AC52"/>
<stop offset="0.71" stop-color="#48A774"/>
<stop offset="0.86" stop-color="#3AA1A3"/>
<stop offset="1" stop-color="#2B9AD6"/>
</linearGradient>
<linearGradient id="paint6_linear_8301_4925" x1="26.3378" y1="26.2452" x2="50.9364" y2="26.2452" gradientUnits="userSpaceOnUse">
<stop stop-color="#99C237"/>
<stop offset="0.03" stop-color="#91C037"/>
<stop offset="0.18" stop-color="#73B736"/>
<stop offset="0.3" stop-color="#61B236"/>
<stop offset="0.39" stop-color="#5AB036"/>
<stop offset="0.47" stop-color="#58AF3E"/>
<stop offset="0.58" stop-color="#52AC52"/>
<stop offset="0.71" stop-color="#48A774"/>
<stop offset="0.86" stop-color="#3AA1A3"/>
<stop offset="1" stop-color="#2B9AD6"/>
</linearGradient>
<linearGradient id="paint7_linear_8301_4925" x1="47.1144" y1="38.2556" x2="50.8114" y2="38.2556" gradientUnits="userSpaceOnUse">
<stop stop-color="#99C237"/>
<stop offset="0.03" stop-color="#91C037"/>
<stop offset="0.18" stop-color="#73B736"/>
<stop offset="0.3" stop-color="#61B236"/>
<stop offset="0.39" stop-color="#5AB036"/>
<stop offset="0.47" stop-color="#58AF3E"/>
<stop offset="0.58" stop-color="#52AC52"/>
<stop offset="0.71" stop-color="#48A774"/>
<stop offset="0.86" stop-color="#3AA1A3"/>
<stop offset="1" stop-color="#2B9AD6"/>
</linearGradient>
<linearGradient id="paint8_linear_8301_4925" x1="34.138" y1="41.0392" x2="47.593" y2="41.0392" gradientUnits="userSpaceOnUse">
<stop stop-color="#99C237"/>
<stop offset="0.03" stop-color="#91C037"/>
<stop offset="0.18" stop-color="#73B736"/>
<stop offset="0.3" stop-color="#61B236"/>
<stop offset="0.39" stop-color="#5AB036"/>
<stop offset="0.47" stop-color="#58AF3E"/>
<stop offset="0.58" stop-color="#52AC52"/>
<stop offset="0.71" stop-color="#48A774"/>
<stop offset="0.86" stop-color="#3AA1A3"/>
<stop offset="1" stop-color="#2B9AD6"/>
</linearGradient>
<linearGradient id="paint9_linear_8301_4925" x1="31.8281" y1="47.8118" x2="40.822" y2="47.8118" gradientUnits="userSpaceOnUse">
<stop stop-color="#99C237"/>
<stop offset="0.03" stop-color="#91C037"/>
<stop offset="0.18" stop-color="#73B736"/>
<stop offset="0.3" stop-color="#61B236"/>
<stop offset="0.39" stop-color="#5AB036"/>
<stop offset="0.47" stop-color="#58AF3E"/>
<stop offset="0.58" stop-color="#52AC52"/>
<stop offset="0.71" stop-color="#48A774"/>
<stop offset="0.86" stop-color="#3AA1A3"/>
<stop offset="1" stop-color="#2B9AD6"/>
</linearGradient>
<linearGradient id="paint10_linear_8301_4925" x1="47.1164" y1="38.2556" x2="50.8133" y2="38.2556" gradientUnits="userSpaceOnUse">
<stop stop-color="#99C237"/>
<stop offset="0.03" stop-color="#91C037"/>
<stop offset="0.18" stop-color="#73B736"/>
<stop offset="0.3" stop-color="#61B236"/>
<stop offset="0.39" stop-color="#5AB036"/>
<stop offset="0.47" stop-color="#58AF3E"/>
<stop offset="0.58" stop-color="#52AC52"/>
<stop offset="0.71" stop-color="#48A774"/>
<stop offset="0.86" stop-color="#3AA1A3"/>
<stop offset="1" stop-color="#2B9AD6"/>
</linearGradient>
<linearGradient id="paint11_linear_8301_4925" x1="34.1399" y1="41.0392" x2="47.5949" y2="41.0392" gradientUnits="userSpaceOnUse">
<stop stop-color="#99C237"/>
<stop offset="0.03" stop-color="#91C037"/>
<stop offset="0.18" stop-color="#73B736"/>
<stop offset="0.3" stop-color="#61B236"/>
<stop offset="0.39" stop-color="#5AB036"/>
<stop offset="0.47" stop-color="#58AF3E"/>
<stop offset="0.58" stop-color="#52AC52"/>
<stop offset="0.71" stop-color="#48A774"/>
<stop offset="0.86" stop-color="#3AA1A3"/>
<stop offset="1" stop-color="#2B9AD6"/>
</linearGradient>
<linearGradient id="paint12_linear_8301_4925" x1="31.8281" y1="47.8118" x2="40.822" y2="47.8118" gradientUnits="userSpaceOnUse">
<stop stop-color="#99C237"/>
<stop offset="0.03" stop-color="#91C037"/>
<stop offset="0.18" stop-color="#73B736"/>
<stop offset="0.3" stop-color="#61B236"/>
<stop offset="0.39" stop-color="#5AB036"/>
<stop offset="0.47" stop-color="#58AF3E"/>
<stop offset="0.58" stop-color="#52AC52"/>
<stop offset="0.71" stop-color="#48A774"/>
<stop offset="0.86" stop-color="#3AA1A3"/>
<stop offset="1" stop-color="#2B9AD6"/>
</linearGradient>
<linearGradient id="paint13_linear_8301_4925" x1="28.0988" y1="38.8304" x2="39.2114" y2="27.7147" gradientUnits="userSpaceOnUse">
<stop stop-color="#99C237"/>
<stop offset="0.03" stop-color="#91C037"/>
<stop offset="0.18" stop-color="#73B736"/>
<stop offset="0.3" stop-color="#61B236"/>
<stop offset="0.39" stop-color="#5AB036"/>
<stop offset="0.47" stop-color="#58AF3E"/>
<stop offset="0.58" stop-color="#52AC52"/>
<stop offset="0.71" stop-color="#48A774"/>
<stop offset="0.86" stop-color="#3AA1A3"/>
<stop offset="1" stop-color="#2B9AD6"/>
</linearGradient>
<linearGradient id="paint14_linear_8301_4925" x1="28.0988" y1="38.8304" x2="39.2114" y2="27.7147" gradientUnits="userSpaceOnUse">
<stop stop-color="#99C237"/>
<stop offset="0.03" stop-color="#91C037"/>
<stop offset="0.18" stop-color="#73B736"/>
<stop offset="0.3" stop-color="#61B236"/>
<stop offset="0.39" stop-color="#5AB036"/>
<stop offset="0.47" stop-color="#58AF3E"/>
<stop offset="0.58" stop-color="#52AC52"/>
<stop offset="0.71" stop-color="#48A774"/>
<stop offset="0.86" stop-color="#3AA1A3"/>
<stop offset="1" stop-color="#2B9AD6"/>
</linearGradient>
<clipPath id="clip0_8301_4925">
<rect width="181.492" height="80" fill="white"/>
</clipPath>
</defs>
</svg>
