<svg width="32" height="32" viewBox="0 0 32 32" fill="none" xmlns="http://www.w3.org/2000/svg">
<path fill-rule="evenodd" clip-rule="evenodd" d="M4.33301 9.33334C4.33301 8.78106 4.78072 8.33334 5.33301 8.33334H26.6663C27.2186 8.33334 27.6663 8.78106 27.6663 9.33334C27.6663 9.88563 27.2186 10.3333 26.6663 10.3333H5.33301C4.78072 10.3333 4.33301 9.88563 4.33301 9.33334ZM4.33301 16C4.33301 15.4477 4.78072 15 5.33301 15H26.6663C27.2186 15 27.6663 15.4477 27.6663 16C27.6663 16.5523 27.2186 17 26.6663 17H5.33301C4.78072 17 4.33301 16.5523 4.33301 16ZM4.33301 22.6667C4.33301 22.1144 4.78072 21.6667 5.33301 21.6667H26.6663C27.2186 21.6667 27.6663 22.1144 27.6663 22.6667C27.6663 23.219 27.2186 23.6667 26.6663 23.6667H5.33301C4.78072 23.6667 4.33301 23.219 4.33301 22.6667Z" fill="#757575"/>
</svg>
