<svg width="24" height="24" viewBox="0 0 24 24" fill="none" xmlns="http://www.w3.org/2000/svg">
<path fill-rule="evenodd" clip-rule="evenodd" d="M5.25 12.0042C5.25 11.5899 5.58579 11.2542 6 11.2542H18C18.4142 11.2542 18.75 11.5899 18.75 12.0042C18.75 12.4184 18.4142 12.7542 18 12.7542H6C5.58579 12.7542 5.25 12.4184 5.25 12.0042Z" fill="#004CE8"/>
<path fill-rule="evenodd" clip-rule="evenodd" d="M11.4697 5.46967C11.7626 5.17678 12.2374 5.17678 12.5303 5.46967L18.5303 11.4697C18.8232 11.7626 18.8232 12.2374 18.5303 12.5303L12.5303 18.5303C12.2374 18.8232 11.7626 18.8232 11.4697 18.5303C11.1768 18.2374 11.1768 17.7626 11.4697 17.4697L16.9393 12L11.4697 6.53033C11.1768 6.23744 11.1768 5.76256 11.4697 5.46967Z" fill="#004CE8"/>
</svg>
